<svg width="22" height="22" viewBox="0 0 22 22" fill="none"
	xmlns="http://www.w3.org/2000/svg">
	<path d="M3.67969 21.5742H17.8945C20.3555 21.5742 21.5742 20.3555 21.5742 17.9414V3.63281C21.5742 1.21875 20.3555 0 17.8945 0H3.67969C1.23047 0 0 1.20703 0 3.63281V17.9414C0 20.3672 1.23047 21.5742 3.67969 21.5742ZM3.70312 19.6875C2.53125 19.6875 1.88672 19.0664 1.88672 17.8477V3.72656C1.88672 2.50781 2.53125 1.88672 3.70312 1.88672H17.8711C19.0312 1.88672 19.6875 2.50781 19.6875 3.72656V17.8477C19.6875 19.0664 19.0312 19.6875 17.8711 19.6875H3.70312ZM6.21094 11.7656H15.3984C16.0547 11.7656 16.5117 11.4141 16.5117 10.793C16.5117 10.1602 16.0781 9.79688 15.3984 9.79688H6.21094C5.51953 9.79688 5.08594 10.1602 5.08594 10.793C5.08594 11.4141 5.55469 11.7656 6.21094 11.7656Z" fill="#36BFB6" />
</svg>